<?xml version="1.0" encoding="utf-8"?>
<svg version="1.1" xmlns="http://www.w3.org/2000/svg" width="749px" height="259px">
<path fill="#166598" d="M703.344,215.459H219.758v-173.9h483.585c22.136,0,40.144,18.008,40.144,40.144v93.615
	C743.486,197.454,725.479,215.459,703.344,215.459L703.344,215.459z"/>
<path fill="#FFF" d="M343.111,116.375h-12.318l-19.641-36.492v36.492H299.45V64.028h15.706l16.253,29.988V64.028h11.703V116.375z
	 M399.912,90.219c-0.001,8.461-2.202,15.117-6.604,19.969c-4.403,4.852-10.437,7.277-18.101,7.277
	c-7.688,0-13.722-2.455-18.102-7.365s-6.569-11.537-6.569-19.881c0-8.414,2.189-15.064,6.569-19.951s10.414-7.33,18.102-7.33
	c7.664,0,13.697,2.432,18.101,7.295C397.71,75.096,399.911,81.758,399.912,90.219L399.912,90.219z M386.703,90.184
	c0-3.117-0.313-5.771-0.94-7.963c-0.628-2.191-1.466-3.99-2.515-5.396c-1.096-1.43-2.333-2.455-3.713-3.076
	c-1.381-0.621-2.812-0.932-4.295-0.932c-1.573,0-2.999,0.287-4.276,0.861c-1.278,0.574-2.51,1.6-3.696,3.076
	c-1.049,1.359-1.899,3.164-2.549,5.414c-0.65,2.25-0.975,4.934-0.975,8.051c0,3.211,0.308,5.877,0.924,7.998
	c0.616,2.121,1.46,3.896,2.532,5.326c1.095,1.453,2.338,2.49,3.729,3.111c1.392,0.621,2.829,0.932,4.311,0.932
	c1.506,0,2.966-0.334,4.381-1.002c1.414-0.668,2.635-1.705,3.66-3.111c1.096-1.523,1.939-3.299,2.533-5.326
	C386.407,96.12,386.703,93.465,386.703,90.184L386.703,90.184z M475.087,116.375h-15.604l-14.2-19.195h-4.585v19.195H427.97V64.028
	h20.496c2.828,0,5.292,0.182,7.391,0.545s4.038,1.119,5.817,2.268c1.824,1.195,3.273,2.713,4.346,4.553s1.607,4.178,1.607,7.014
	c0,4.008-0.878,7.26-2.634,9.756c-1.757,2.496-4.106,4.482-7.049,5.959L475.087,116.375z M454.488,80.059
	c0-1.313-0.245-2.443-0.736-3.393c-0.49-0.949-1.306-1.682-2.446-2.197c-0.798-0.352-1.688-0.574-2.669-0.668
	c-0.98-0.094-2.201-0.141-3.661-0.141h-4.277v14.098h3.661c1.779,0,3.291-0.111,4.534-0.334s2.298-0.697,3.165-1.424
	c0.821-0.656,1.432-1.441,1.831-2.355C454.288,82.731,454.488,81.536,454.488,80.059L454.488,80.059z M504.274,116.375h-27.442
	v-9.141h7.322V73.168h-7.322v-9.141h27.442v9.141h-7.323v34.066h7.323V116.375z M555.395,113.387
	c-2.235,0.938-5.138,1.852-8.708,2.742s-7.089,1.336-10.556,1.336c-8.007,0-14.389-2.373-19.145-7.119
	c-4.757-4.746-7.135-11.479-7.135-20.197c0-8.203,2.378-14.777,7.135-19.723c4.756-4.945,11.263-7.418,19.521-7.418
	c4.266,0,7.733,0.416,10.402,1.248s5.429,1.963,8.28,3.393v12.27h-1.163c-0.616-0.492-1.5-1.189-2.652-2.092
	c-1.151-0.902-2.275-1.67-3.37-2.303c-1.277-0.75-2.755-1.395-4.432-1.934c-1.676-0.539-3.45-0.809-5.32-0.809
	c-2.19,0-4.186,0.352-5.988,1.055c-1.802,0.703-3.41,1.781-4.824,3.234c-1.346,1.406-2.412,3.188-3.199,5.344
	s-1.181,4.664-1.181,7.523c0,6.117,1.494,10.629,4.482,13.535s7.071,4.359,12.25,4.359c0.456,0,0.992-0.012,1.608-0.035
	c0.615-0.023,1.151-0.059,1.607-0.105V97.426h-9.889v-9.809h22.275V113.387z M608.124,116.375h-12.798V93.172H577.91v23.203h-12.798
	V64.028h12.798v19.16h17.416v-19.16h12.798V116.375z M628.414,116.375V74.012h-15.056v-9.984h42.909v9.984h-15.056v42.363H628.414z
	 M677.345,117.325c-3.9,0-7.328-0.387-10.282-1.16s-5.697-1.734-8.229-2.883v-12.445h1.163c2.555,2.227,5.372,3.938,8.451,5.133
	c3.08,1.195,6.068,1.793,8.966,1.793c0.729,0,1.693-0.082,2.891-0.246c1.198-0.164,2.162-0.422,2.892-0.773
	c0.89-0.398,1.643-0.955,2.259-1.67c0.615-0.715,0.924-1.658,0.924-2.83c0-1.313-0.502-2.379-1.506-3.199s-2.201-1.418-3.593-1.793
	c-1.733-0.469-3.587-0.914-5.561-1.336s-3.815-0.938-5.526-1.547c-3.946-1.43-6.774-3.352-8.485-5.766s-2.566-5.438-2.566-9.07
	c0-4.898,2.019-8.865,6.057-11.9c4.037-3.035,9.079-4.553,15.124-4.553c3.033,0,6.051,0.316,9.05,0.949
	c3,0.633,5.687,1.488,8.059,2.566v11.953h-1.129c-1.894-1.664-4.203-3.07-6.93-4.219c-2.726-1.148-5.525-1.723-8.399-1.723
	c-1.118,0-2.122,0.082-3.012,0.246s-1.825,0.48-2.806,0.949c-0.799,0.375-1.488,0.932-2.07,1.67s-0.872,1.564-0.872,2.479
	c0,1.336,0.462,2.396,1.386,3.182s2.709,1.494,5.354,2.127c1.711,0.398,3.359,0.785,4.944,1.16c1.586,0.375,3.279,0.891,5.081,1.547
	c3.536,1.313,6.165,3.076,7.888,5.291c1.722,2.215,2.583,5.139,2.583,8.771c0,5.203-1.99,9.387-5.971,12.551
	S684.12,117.325,677.345,117.325L677.345,117.325z M279.193,193.971v-62.337H306.4c5.046,0,8.901,0.511,11.568,1.531
	s4.816,2.914,6.45,5.676c1.634,2.765,2.45,6.134,2.45,10.101c0,3.459-0.625,6.44-1.875,8.951c-1.25,2.508-2.969,4.541-5.157,6.101
	c-1.394,0.991-3.304,1.813-5.732,2.466c1.945,0.768,3.361,1.535,4.25,2.298c0.6,0.513,1.471,1.604,2.611,3.278
	c1.14,1.674,1.902,2.965,2.287,3.871l7.905,18.064h-18.446l-8.726-19.051c-1.105-2.466-2.091-4.066-2.955-4.804
	c-1.176-0.964-2.51-1.447-4-1.447h-1.442v25.302h-16.397l0,0H279.193z M295.59,156.893h6.882c0.745,0,2.186-0.285,4.325-0.854
	c1.081-0.253,1.963-0.902,2.649-1.956c0.684-1.049,1.026-2.252,1.026-3.614c0-2.012-0.541-3.557-1.622-4.634
	s-3.112-1.617-6.091-1.617h-7.17L295.59,156.893L295.59,156.893z M337.454,131.633h43.748v13.309h-27.388v9.908h25.407v12.715
	h-25.407v12.289h28.18v14.117h-44.541L337.454,131.633L337.454,131.633z M389.049,173.35l15.532-1.147
	c0.334,2.976,1.021,5.245,2.054,6.803c1.682,2.524,4.083,3.784,7.208,3.784c2.328,0,4.123-0.646,5.388-1.936
	c1.261-1.289,1.892-2.785,1.892-4.485c0-1.615-0.603-3.062-1.802-4.336c-1.202-1.277-3.988-2.481-8.36-3.615
	c-7.159-1.897-12.265-4.423-15.315-7.569c-3.074-3.146-4.612-7.156-4.612-12.033c0-3.203,0.786-6.23,2.36-9.078
	c1.573-2.85,3.939-5.088,7.1-6.719c3.158-1.629,7.49-2.443,12.992-2.443c6.75,0,11.896,1.48,15.439,4.443
	c3.542,2.963,5.651,7.676,6.324,14.139l-15.389,1.063c-0.406-2.807-1.268-4.848-2.575-6.123c-1.312-1.275-3.116-1.914-5.423-1.914
	c-1.897,0-3.327,0.476-4.291,1.424c-0.959,0.951-1.438,2.105-1.438,3.465c0,0.994,0.396,1.886,1.188,2.681
	c0.77,0.821,2.595,1.589,5.478,2.296c7.136,1.814,12.246,3.648,15.334,5.508c3.088,1.857,5.334,4.158,6.739,6.909
	c1.406,2.75,2.106,5.825,2.106,9.228c0,3.996-0.936,7.682-2.81,11.056s-4.492,5.933-7.857,7.678
	c-3.362,1.741-7.602,2.614-12.722,2.614c-8.983,0-15.206-2.042-18.665-6.122C391.461,184.83,389.505,179.641,389.049,173.35z
	 M446.265,131.633h43.748v13.309h-27.388v9.908h25.406v12.715h-25.406v12.289h28.18v14.117h-44.54V131.633L446.265,131.633z
	 M500.921,193.971v-62.337h27.209c5.044,0,8.9,0.511,11.567,1.531c2.666,1.021,4.814,2.914,6.452,5.676
	c1.634,2.765,2.448,6.134,2.448,10.101c0,3.459-0.624,6.44-1.876,8.951c-1.25,2.508-2.969,4.541-5.155,6.101
	c-1.395,0.991-3.306,1.813-5.734,2.466c1.943,0.768,3.362,1.535,4.249,2.298c0.603,0.513,1.473,1.604,2.614,3.278
	c1.139,1.674,1.899,2.965,2.286,3.871l7.905,18.064H534.44l-8.727-19.051c-1.105-2.466-2.091-4.066-2.955-4.804
	c-1.178-0.964-2.511-1.447-3.999-1.447h-1.44v25.302H500.921L500.921,193.971L500.921,193.971z M517.319,156.893h6.88
	c0.745,0,2.188-0.285,4.327-0.854c1.081-0.253,1.964-0.902,2.647-1.956c0.687-1.047,1.026-2.252,1.026-3.614
	c0-2.012-0.54-3.557-1.623-4.634c-1.079-1.077-3.111-1.617-6.088-1.617h-7.171L517.319,156.893L517.319,156.893z M552.77,131.633
	h17.066l11.889,44.862l11.739-44.862h16.567l-19.617,62.338h-17.693L552.77,131.633z M616.438,131.633h43.746v13.309h-27.388v9.908
	h25.406v12.715h-25.406v12.289h28.183v14.117h-44.541V131.633L616.438,131.633z M671.093,131.633h24.254
	c4.781,0,8.644,0.768,11.587,2.297c2.942,1.529,5.374,3.729,7.295,6.592c1.925,2.86,3.316,6.191,4.182,9.992
	c0.865,3.799,1.298,7.823,1.298,12.075c0,6.662-0.646,11.829-1.929,15.502c-1.285,3.671-3.068,6.745-5.353,9.226
	c-2.282,2.479-4.731,4.134-7.351,4.953c-3.581,1.137-6.823,1.701-9.729,1.701h-24.254V131.633z M687.417,145.751v34.062h4
	c3.412,0,5.84-0.445,7.279-1.338c1.443-0.895,2.571-2.453,3.39-4.679c0.813-2.226,1.227-5.833,1.227-10.821
	c0-6.607-0.916-11.127-2.739-13.565c-1.825-2.438-4.854-3.657-9.082-3.657L687.417,145.751L687.417,145.751z"/>
<g>
	<path fill="#FFF" d="M132.104,245.277c-64.082,0-116.215-52.133-116.215-116.214
		c0-64.083,52.133-116.215,116.215-116.215c64.083,0,116.216,52.133,116.216,116.215
		C248.321,193.145,196.188,245.277,132.104,245.277L132.104,245.277z"/>
	<path d="M132.104,24.022c58.013,0,105.041,47.028,105.041,105.04s-47.028,105.04-105.041,105.04
		c-58.012,0-105.039-47.027-105.039-105.04C27.064,71.051,74.092,24.022,132.104,24.022 M132.104,1.673
		c-34.026,0-66.016,13.251-90.077,37.312c-24.06,24.06-37.312,56.05-37.312,90.078s13.251,66.018,37.312,90.078
		c24.061,24.062,56.051,37.313,90.077,37.313c34.027,0,66.018-13.251,90.079-37.313c24.061-24.062,37.312-56.052,37.312-90.078
		c0-34.027-13.251-66.017-37.312-90.078S166.132,1.673,132.104,1.673L132.104,1.673z"/>
	<path d="M79.786,150.225v32.832h-19.99V96.733h19.99v9.157c2.754-3.648,5.807-6.337,9.157-8.068
		s7.203-2.596,11.558-2.597c7.706,0,14.034,3.062,18.984,9.186c4.951,6.123,7.426,14.005,7.426,23.646
		c0,9.642-2.476,17.523-7.426,23.647c-4.951,6.123-11.279,9.185-18.984,9.185c-4.355,0-8.208-0.865-11.558-2.597
		C85.593,156.563,82.54,153.873,79.786,150.225L79.786,150.225z M93.075,109.743c-4.281,0-7.566,1.573-9.855,4.718
		c-2.29,3.146-3.434,7.678-3.434,13.596c0,5.919,1.145,10.45,3.434,13.597c2.289,3.145,5.574,4.718,9.855,4.718
		s7.547-1.563,9.799-4.69s3.378-7.668,3.378-13.624c0-5.956-1.126-10.497-3.378-13.624S97.355,109.743,93.075,109.743
		L93.075,109.743z M184.312,105.891V72.389h20.102v86.882h-20.102v-9.046c-2.754,3.686-5.788,6.385-9.101,8.097
		s-7.147,2.568-11.502,2.568c-7.706,0-14.034-3.062-18.984-9.185c-4.951-6.124-7.426-14.006-7.426-23.647
		c0-9.641,2.476-17.523,7.426-23.646c4.951-6.124,11.279-9.185,18.984-9.186c4.318,0,8.143,0.866,11.475,2.597
		S181.557,102.243,184.312,105.891L184.312,105.891z M171.134,146.372c4.281,0,7.547-1.563,9.799-4.69s3.378-7.668,3.378-13.624
		c0-5.956-1.126-10.497-3.378-13.624s-5.519-4.69-9.799-4.69c-4.244,0-7.491,1.563-9.744,4.69
		c-2.252,3.127-3.378,7.668-3.378,13.624c0,5.956,1.126,10.497,3.378,13.624C163.643,144.809,166.891,146.372,171.134,146.372
		L171.134,146.372z"/>
</g>
</svg>
