<?xml version="1.0" encoding="UTF-8" standalone="no"?>
<!-- created by yotoen -->

<svg
   xmlns:svg="http://www.w3.org/2000/svg"
   xmlns="http://www.w3.org/2000/svg"
   version="1.1"
   width="256"
   height="256"
   viewBox="0 0 256 256"
   id="Layer_1"
   xml:space="preserve"><defs
   id="defs2844" />
<path
   d="M 128,16 C 66.144,16 16,66.144 16,128 16,189.855 66.144,240 128,240 189.855,240 240,189.855 240,128 240,66.144 189.855,16 128,16 z m 0,208 c -53.02,0 -96,-42.98 -96,-96 0,-53.02 42.98,-96 96,-96 53.02,0 96,42.98 96,96 0,53.02 -42.98,96 -96,96 z"
   id="path2834" />
<path
   d="m 160,56 c -22.092,0 -40,17.909 -40,40 0,22.091 17.908,40 40,40 22.092,0 40,-17.909 40,-40 0,-22.091 -17.908,-40 -40,-40 z m 0,64 c -13.255,0 -24,-10.745 -24,-24 0,-13.255 10.745,-24 24,-24 13.255,0 24,10.745 24,24 0,13.255 -10.745,24 -24,24 z"
   id="path2836" />
<path
   d="m 96,120 c -22.092,0 -40,17.908 -40,40 0,22.092 17.908,40 40,40 22.092,0 40,-17.908 40,-40 0,-22.092 -17.908,-40 -40,-40 z m 0,64 c -13.255,0 -24,-10.745 -24,-24 0,-13.255 10.745,-24 24,-24 13.255,0 24,10.745 24,24 0,13.255 -10.745,24 -24,24 z"
   id="path2838" />
<rect
   width="16"
   height="144"
   x="120"
   y="56"
   id="rect2840" />
</svg>